HIERARCHY
ROOT Hips
{
 OFFSET 0.000000 0.000000 0.000000
 CHANNELS 6 Xposition Yposition Zposition Yrotation Xrotation Zrotation
 JOINT Chest
 {
  OFFSET 0.000000 9.588913 -0.003946
  CHANNELS 3 Yrotation Xrotation Zrotation
  JOINT Chest2
  {
   OFFSET 0.000000 9.541882 0.008053
   CHANNELS 3 Yrotation Xrotation Zrotation
   JOINT Chest3
   {
    OFFSET 0.000000 9.501360 0.000000
    CHANNELS 3 Yrotation Xrotation Zrotation
    JOINT Chest4
    {
     OFFSET 0.000000 9.491660 0.000000
     CHANNELS 3 Yrotation Xrotation Zrotation
     JOINT Neck
     {
      OFFSET 0.000000 14.331917 0.000000
      CHANNELS 3 Yrotation Xrotation Zrotation
      JOINT Head
      {
       OFFSET 0.000000 8.884799 0.017034
       CHANNELS 3 Yrotation Xrotation Zrotation
       End Site
       {
        OFFSET 0.000000 16.896195 0.008993
       }
      }
     }
     JOINT RightCollar
     {
      OFFSET -2.923010 9.499495 0.000000
      CHANNELS 3 Yrotation Xrotation Zrotation
      JOINT RightShoulder
      {
       OFFSET -13.795216 0.000000 0.000000
       CHANNELS 3 Yrotation Xrotation Zrotation
       JOINT RightElbow
       {
        OFFSET -30.272209 0.000000 0.000000
        CHANNELS 3 Yrotation Xrotation Zrotation
        JOINT RightWrist
        {
         OFFSET -24.478199 0.000000 0.000000
         CHANNELS 3 Yrotation Xrotation Zrotation
         End Site
         {
          OFFSET -18.090752 0.000000 0.000000
         }
        }
       }
      }
     }
     JOINT LeftCollar
     {
      OFFSET 2.923010 9.499495 0.000000
      CHANNELS 3 Yrotation Xrotation Zrotation
      JOINT LeftShoulder
      {
       OFFSET 13.795216 0.000000 0.000000
       CHANNELS 3 Yrotation Xrotation Zrotation
       JOINT LeftElbow
       {
        OFFSET 30.272209 0.000000 0.000000
        CHANNELS 3 Yrotation Xrotation Zrotation
        JOINT LeftWrist
        {
         OFFSET 24.478199 0.000000 0.000000
         CHANNELS 3 Yrotation Xrotation Zrotation
         End Site
         {
          OFFSET 18.090752 0.000000 0.000000
         }
        }
       }
      }
     }
    }
   }
  }
 }
 JOINT RightHip
 {
  OFFSET -7.826875 0.019532 0.001973
  CHANNELS 3 Yrotation Xrotation Zrotation
  JOINT RightKnee
  {
   OFFSET 0.000000 -40.546152 -0.001885
   CHANNELS 3 Yrotation Xrotation Zrotation
   JOINT RightAnkle
   {
    OFFSET 0.000000 -39.417092 -0.003189
    CHANNELS 3 Yrotation Xrotation Zrotation
    JOINT RightToe
    {
     OFFSET 0.000000 -7.579396 17.243563
     CHANNELS 3 Yrotation Xrotation Zrotation
     End Site
     {
      OFFSET 0.000000 -1.500329 6.694466
     }
    }
   }
  }
 }
 JOINT LeftHip
 {
  OFFSET 7.826875 0.019532 0.001973
  CHANNELS 3 Yrotation Xrotation Zrotation
  JOINT LeftKnee
  {
   OFFSET 0.000000 -40.546152 -0.001885
   CHANNELS 3 Yrotation Xrotation Zrotation
   JOINT LeftAnkle
   {
    OFFSET 0.000000 -39.417092 -0.003189
    CHANNELS 3 Yrotation Xrotation Zrotation
    JOINT LeftToe
    {
     OFFSET 0.000000 -7.579396 17.243563
     CHANNELS 3 Yrotation Xrotation Zrotation
     End Site
     {
      OFFSET 0.000000 -1.500329 6.694466
     }
    }
   }
  }
 }
}
MOTION
Frames: 9
Frame Time: 0.008333
25.170031 11.786761 47.277456 17.649334 -62.611736 -158.807597 -0.139287 7.802721 0.795916 -0.100711 4.448270 0.447730 -0.120527 5.560450 0.558858 -0.100711 4.448270 0.447730 -7.406826 10.920714 -0.211939 -8.107050 -14.126995 1.539021 -7.076642 -6.121362 -10.783618 6.917081 20.277899 86.312942 41.550767 14.713904 34.972872 16.906045 -3.658116 -11.816368 -2.740477 -5.683947 12.199272 4.040479 18.844581 -90.390327 -23.077802 17.479007 -34.547749 -9.333228 2.431011 7.906577 -7.197623 -29.048264 1.275368 175.822058 57.679655 178.479773 14.058258 20.675178 10.655444 -0.012049 -0.049578 -0.078306 33.544423 22.286811 18.650276 0.675172 -1.608763 5.485818 5.913240 19.563270 -13.361967 -0.015100 -0.030938 0.011309
25.171927 11.782276 47.282362 17.636854 -62.595613 -158.800247 -0.169519 7.814400 0.802222 -0.115806 4.450085 0.450472 -0.139374 5.562737 0.562104 -0.115805 4.450086 0.450472 -7.379697 10.907095 -0.230048 -8.071434 -14.142266 1.512420 -7.021952 -6.305185 -10.851814 7.113624 20.406408 86.512053 40.790133 14.937930 34.540696 17.082511 -3.636693 -12.243839 -2.607874 -5.848627 12.246486 3.514598 18.807840 -90.620703 -22.097948 18.231804 -33.511178 -9.073350 2.545796 7.676176 -7.253956 -29.030551 1.277840 175.833454 57.710990 178.499298 13.924584 20.740842 10.604677 -0.015673 -0.046091 -0.096322 33.555962 22.282793 18.665136 0.682083 -1.605105 5.471797 5.906896 19.578726 -13.310392 -0.012789 -0.028996 0.007079
25.174142 11.780175 47.287158 17.623516 -62.581909 -158.790452 -0.201006 7.823564 0.806071 -0.131261 4.452082 0.451120 -0.158698 5.565252 0.562727 -0.131261 4.452082 0.451120 -7.352855 10.885627 -0.245749 -8.037161 -14.165900 1.488674 -6.988384 -6.499367 -10.915466 7.329669 20.538455 86.718706 40.076043 15.229387 34.058599 17.294417 -3.576931 -12.557442 -2.488799 -6.004461 12.273040 2.728912 18.779459 -90.956739 -21.043678 18.687255 -32.341069 -9.135893 2.572701 7.604602 -7.310646 -29.009901 1.280802 175.847074 57.748248 178.522765 13.777335 20.810203 10.548014 -0.020606 -0.043340 -0.112402 33.570063 22.278858 18.677138 0.685124 -1.604889 5.462178 5.898677 19.597369 -13.259599 -0.009413 -0.029318 0.002082
25.176762 11.780744 47.291342 17.609242 -62.570530 -158.780357 -0.230221 7.830704 0.809263 -0.145778 4.454548 0.450074 -0.176868 5.568353 0.561240 -0.145778 4.454549 0.450074 -7.331273 10.854659 -0.258851 -8.010170 -14.199565 1.469261 -6.981330 -6.696774 -10.971014 7.548969 20.667189 86.921263 39.377839 15.530157 33.559810 17.523746 -3.498492 -12.737213 -2.396688 -6.135847 12.287930 1.864726 18.761626 -91.323645 -19.965840 18.925594 -31.125352 -9.521005 2.528686 7.779214 -7.368271 -28.984712 1.287327 175.869315 57.793059 178.552214 13.631898 20.881332 10.487134 -0.025541 -0.042115 -0.121631 33.583373 22.276755 18.687284 0.686152 -1.609916 5.457440 5.889736 19.616971 -13.208719 -0.001650 -0.031461 -0.004092
25.179543 11.782437 47.294708 17.600804 -62.561855 -158.775866 -0.255080 7.836401 0.810389 -0.158952 4.456858 0.448132 -0.193369 5.571255 0.558650 -0.158952 4.456858 0.448132 -7.317166 10.818160 -0.271622 -7.992278 -14.238998 1.452172 -6.989412 -6.896209 -11.024203 7.745777 20.795835 87.106138 38.687440 15.818068 33.086353 17.729299 -3.442489 -12.816397 -2.332061 -6.225196 12.304091 1.093202 18.743046 -91.661903 -18.908205 19.085158 -29.944342 -10.101251 2.370981 8.182310 -7.424567 -28.955783 1.297583 175.892377 57.845562 178.577252 13.492966 20.955549 10.423844 -0.028216 -0.043432 -0.121337 33.595612 22.276356 18.696210 0.684339 -1.616446 5.454639 5.883787 19.638508 -13.164968 0.004643 -0.033832 -0.007532
25.182142 11.781727 47.297026 17.602765 -62.557832 -158.780544 -0.274874 7.840231 0.808808 -0.170511 4.458010 0.446016 -0.207853 5.572708 0.555861 -0.170511 4.458010 0.446016 -7.311398 10.782276 -0.286177 -7.983662 -14.277631 1.435199 -7.002517 -7.097903 -11.080340 7.899330 20.928502 87.262683 38.001969 16.085687 32.664826 17.895481 -3.442659 -12.842565 -2.289875 -6.267322 12.328110 0.522989 18.717038 -91.937836 -17.843324 19.224404 -28.851670 -10.755396 2.124849 8.719182 -7.475522 -28.926663 1.308666 175.906421 57.905325 178.585438 13.371863 21.031992 10.366731 -0.027333 -0.046372 -0.112515 33.607275 22.275180 18.700996 0.678247 -1.621799 5.453559 5.884552 19.662174 -13.131235 0.006682 -0.034628 -0.006953
25.184333 11.774869 47.298448 17.617852 -62.556146 -158.796312 -0.289341 7.844393 0.806674 -0.180552 4.458199 0.444246 -0.220435 5.572956 0.553524 -0.180552 4.458200 0.444246 -7.312772 10.751213 -0.303329 -7.982509 -14.310998 1.417080 -7.013224 -7.294741 -11.138603 7.988567 21.059104 87.377132 37.319089 16.338829 32.305345 18.030390 -3.476805 -12.860192 -2.261233 -6.268288 12.357499 0.180012 18.682192 -92.141650 -16.786676 19.403212 -27.869759 -11.362886 1.859202 9.300871 -7.516688 -28.896546 1.318964 175.903894 57.969059 178.573371 13.259438 21.105812 10.315745 -0.024149 -0.046825 -0.098280 33.612354 22.277421 18.700247 0.674087 -1.627900 5.453723 5.887876 19.689154 -13.107844 0.009925 -0.033560 -0.002993
25.186275 11.758932 47.299096 17.647759 -62.553292 -158.826369 -0.298329 7.851434 0.806274 -0.189732 4.457951 0.442569 -0.231940 5.572656 0.551314 -0.189732 4.457951 0.442569 -7.316945 10.727699 -0.320040 -7.984368 -14.336232 1.400035 -7.012651 -7.474624 -11.191561 8.007850 21.178118 87.441755 36.649147 16.601047 31.999498 18.154145 -3.511493 -12.910754 -2.236703 -6.241377 12.387228 0.015982 18.637162 -92.284903 -15.765907 19.688572 -26.977198 -11.856873 1.602223 9.841464 -7.546413 -28.863621 1.332451 175.882596 58.032183 178.545063 13.136592 21.172657 10.266009 -0.020671 -0.041560 -0.081940 33.612311 22.285755 18.699324 0.673853 -1.636195 5.451462 5.888839 19.713421 -13.088128 0.023170 -0.028566 0.002367
25.190268 11.734383 47.298360 17.716318 -62.541452 -158.907712 -0.291751 7.872503 0.821134 -0.197878 4.456766 0.440059 -0.242162 5.571182 0.548075 -0.197878 4.456766 0.440059 -7.320981 10.714396 -0.331065 -7.986987 -14.350493 1.389076 -7.000527 -7.624756 -11.228273 7.977448 21.280664 87.465146 36.006553 16.893925 31.721648 18.273934 -3.525481 -13.006856 -2.212833 -6.198457 12.409735 -0.032058 18.579344 -92.378060 -14.790515 20.083442 -26.134304 -12.216439 1.439875 10.268441 -7.565956 -28.819111 1.369379 175.863406 58.091989 178.520052 13.013174 21.230854 10.221609 -0.018394 -0.028883 -0.066617 33.630549 22.296760 18.720506 0.673614 -1.643589 5.447424 5.878586 19.724303 -13.067621 0.060135 -0.020086 0.009960
